<?xml version="1.0" standalone="no"?>
<!DOCTYPE svg PUBLIC "-//W3C//DTD SVG 20010904//EN"
 "http://www.w3.org/TR/2001/REC-SVG-20010904/DTD/svg10.dtd">
<svg version="1.0" xmlns="http://www.w3.org/2000/svg"
 width="50.000000pt" height="50.000000pt" viewBox="0 0 50.000000 50.000000"
 preserveAspectRatio="xMidYMid meet">

<g transform="translate(0.000000,50.000000) scale(0.100000,-0.100000)"
fill="#fff" stroke="none">
<path d="M356 450 c-24 -22 -50 -40 -58 -40 -23 0 -51 -37 -44 -56 5 -13 -21
-45 -99 -124 -58 -59 -105 -113 -105 -120 0 -7 -8 -22 -17 -32 -16 -18 -15
-20 5 -40 20 -20 22 -21 40 -5 10 9 25 17 32 17 7 0 61 47 120 105 79 78 111
104 124 99 19 -7 56 21 56 44 0 8 18 34 40 58 45 49 51 83 20 114 -31 31 -65
25 -114 -20z m102 8 c22 -22 12 -54 -28 -93 l-40 -39 -32 32 -32 32 39 40 c39
40 71 50 93 28z m-108 -113 c37 -38 41 -46 30 -60 -12 -14 -19 -11 -61 31 -37
37 -46 51 -37 61 16 19 20 17 68 -32z m-45 -45 c19 -21 18 -22 -81 -121 -85
-86 -157 -139 -171 -125 -12 12 33 74 121 164 55 56 103 102 107 102 3 0 14
-9 24 -20z"/>
</g>
</svg>
