<?xml version="1.0" standalone="no"?>
<!DOCTYPE svg PUBLIC "-//W3C//DTD SVG 20010904//EN"
 "http://www.w3.org/TR/2001/REC-SVG-20010904/DTD/svg10.dtd">
<svg version="1.0" xmlns="http://www.w3.org/2000/svg"
 width="15px" height="15px" viewBox="0 0 24.000000 24.000000"
 preserveAspectRatio="xMidYMid meet">

<g transform="translate(0.000000,24.000000) scale(0.100000,-0.100000)"
fill="#b8bbbe" stroke="none">
<path d="M7 234 c-4 -4 0 -15 9 -25 13 -15 14 -24 5 -50 -13 -38 -15 -109 -2
-109 5 0 11 -9 14 -20 3 -11 12 -20 21 -20 13 0 16 11 16 51 0 46 -2 51 -20
46 -23 -6 -26 12 -9 45 10 19 14 17 70 -38 39 -38 59 -66 59 -82 0 -17 5 -22
18 -20 9 1 22 -1 29 -5 6 -4 14 -4 17 1 7 11 -218 235 -227 226z"/>
<path d="M83 223 c-24 -9 -13 -23 12 -17 40 10 74 -4 95 -39 27 -44 26 -67 -2
-60 -21 5 -21 3 7 -26 l30 -33 3 34 c6 54 -15 107 -51 128 -31 19 -68 24 -94
13z"/>
</g>
</svg>
