<?xml version="1.0" standalone="no"?>
<!DOCTYPE svg PUBLIC "-//W3C//DTD SVG 20010904//EN"
 "http://www.w3.org/TR/2001/REC-SVG-20010904/DTD/svg10.dtd">
<svg version="1.0" xmlns="http://www.w3.org/2000/svg"
 width="15px" height="15px" viewBox="0 0 24.000000 24.000000"
 preserveAspectRatio="xMidYMid meet">

<g transform="translate(0.000000,24.000000) scale(0.100000,-0.100000)"
fill="#b8bbbe" stroke="none">
<path d="M64 211 c-17 -11 -36 -34 -43 -52 -13 -38 -15 -109 -2 -109 5 0 11
-9 14 -20 3 -11 12 -20 21 -20 13 0 16 11 16 51 0 46 -2 51 -20 46 -14 -4 -20
0 -20 11 0 29 38 81 65 88 40 10 74 -4 95 -39 26 -43 26 -67 0 -60 -18 5 -20
0 -20 -46 0 -40 3 -51 16 -51 9 0 18 9 21 20 3 11 9 20 14 20 14 0 10 77 -5
115 -15 36 -59 65 -98 65 -13 0 -37 -9 -54 -19z"/>
</g>
</svg>
