<?xml version="1.0" standalone="no"?>
<!DOCTYPE svg PUBLIC "-//W3C//DTD SVG 20010904//EN"
 "http://www.w3.org/TR/2001/REC-SVG-20010904/DTD/svg10.dtd">
<svg version="1.0" xmlns="http://www.w3.org/2000/svg"
 width="24.000000pt" height="24.000000pt" viewBox="0 0 24.000000 24.000000"
 preserveAspectRatio="xMidYMid meet">

<g transform="translate(0.000000,24.000000) scale(0.100000,-0.100000)"
fill="#000000" stroke="none">
<path d="M24 187 c-3 -8 -4 -43 -2 -78 l3 -64 48 -3 c28 -2 47 1 47 7 0 6 -18
11 -40 11 l-40 0 0 60 0 60 80 0 80 0 0 -30 c0 -16 5 -30 11 -30 6 0 9 16 7
38 l-3 37 -93 3 c-72 2 -94 0 -98 -11z"/>
<path d="M130 115 c-7 -9 -21 -13 -30 -10 -9 3 -23 -1 -30 -10 -11 -13 -6 -15
39 -15 44 0 51 3 51 19 0 27 -15 34 -30 16z"/>
<path d="M180 80 c0 -13 -7 -20 -20 -20 -11 0 -20 -4 -20 -10 0 -5 9 -10 20
-10 13 0 20 -7 20 -20 0 -11 5 -20 10 -20 6 0 10 9 10 20 0 13 7 20 20 20 11
0 20 5 20 10 0 6 -9 10 -20 10 -13 0 -20 7 -20 20 0 11 -4 20 -10 20 -5 0 -10
-9 -10 -20z"/>
</g>
</svg>
