<?xml version="1.0" standalone="no"?>
<!DOCTYPE svg PUBLIC "-//W3C//DTD SVG 20010904//EN"
 "http://www.w3.org/TR/2001/REC-SVG-20010904/DTD/svg10.dtd">
<svg version="1.0" xmlns="http://www.w3.org/2000/svg"
 width="16px" height="16px" viewBox="0 0 30.000000 30.000000"
 preserveAspectRatio="xMidYMid meet">

<g transform="translate(0.000000,30.000000) scale(0.100000,-0.100000)"
fill="#b8bbbe" stroke="none">
<path d="M124 267 c-2 -8 -4 -47 -2 -88 3 -71 4 -74 28 -74 25 0 25 1 25 85 0
81 -1 85 -23 88 -12 2 -24 -3 -28 -11z"/>
<path d="M80 141 c0 -31 6 -44 30 -64 35 -30 37 -37 10 -37 -11 0 -20 -4 -20
-10 0 -5 23 -10 50 -10 28 0 50 5 50 10 0 6 -9 10 -20 10 -27 0 -25 7 10 37
24 20 30 33 30 64 0 21 -4 39 -10 39 -5 0 -10 -15 -10 -34 0 -38 -21 -66 -50
-66 -29 0 -50 28 -50 66 0 19 -4 34 -10 34 -5 0 -10 -18 -10 -39z"/>
</g>
</svg>
