<?xml version="1.0" standalone="no"?>
<!DOCTYPE svg PUBLIC "-//W3C//DTD SVG 20010904//EN"
 "http://www.w3.org/TR/2001/REC-SVG-20010904/DTD/svg10.dtd">
<svg version="1.0" xmlns="http://www.w3.org/2000/svg"
 width="16px" height="16px" viewBox="0 0 30.000000 30.000000"
 preserveAspectRatio="xMidYMid meet">

<g transform="translate(0.000000,30.000000) scale(0.100000,-0.100000)"
fill="#b8bbbe" stroke="none">
<path d="M10 282 c0 -14 269 -276 277 -269 3 4 -11 25 -32 47 -34 35 -39 45
-36 80 1 24 -2 40 -8 40 -6 0 -11 -14 -11 -32 0 -62 -19 -13 -22 57 -3 67 -4
70 -28 70 -21 0 -26 -5 -30 -38 l-5 -38 -45 45 c-42 44 -60 55 -60 38z"/>
<path d="M80 136 c0 -26 7 -40 30 -59 35 -30 37 -37 10 -37 -11 0 -20 -4 -20
-10 0 -5 23 -10 50 -10 28 0 50 5 50 10 0 6 -9 10 -20 10 -23 0 -26 10 -8 28
9 9 6 12 -14 12 -33 0 -58 24 -58 55 0 13 -4 27 -10 30 -6 4 -10 -8 -10 -29z"/>
<path d="M120 122 c0 -12 19 -26 26 -19 2 2 -2 10 -11 17 -9 8 -15 8 -15 2z"/>
</g>
</svg>
